<?xml version="1.0" encoding="UTF-8" standalone="no"?>

<!-- ####################################################################

This file was generates automatically via the 
IconPacks.Browser (MIT-License). 

Visit https://github.com/MahApps/MahApps.Metro.IconPacks and 
https://github.com/MahApps/MahApps.Metro.IconPacks/blob/develop/LICENSE 
for more information.
 
~~~~~~~~~~~~~~~~~~~~~~~~~~~~~~~~~~~~~~~~~~~~~~~~~~~~~~~~~~~~~~~~~~~~~~~~~~
 
Icon-Name: 			AccountPlusOutline
Iconpack:			Material
Iconpack-Homepage: 	https://pictogrammers.com/library/mdi/
Iconpack-License:	https://github.com/Templarian/MaterialDesign?tab=License-1-ov-file#readme

#####################################################################-->


<svg xmlns="http://www.w3.org/2000/svg"
     width="16"
     height="16">
	<path
		d="M15,4A4,4 0 0,0 11,8A4,4 0 0,0 15,12A4,4 0 0,0 19,8A4,4 0 0,0 15,4M15,5.9C16.16,5.9 17.1,6.84 17.1,8C17.1,9.16 16.16,10.1 15,10.1A2.1,2.1 0 0,1 12.9,8A2.1,2.1 0 0,1 15,5.9M4,7V10H1V12H4V15H6V12H9V10H6V7H4M15,13C12.33,13 7,14.33 7,17V20H23V17C23,14.33 17.67,13 15,13M15,14.9C17.97,14.9 21.1,16.36 21.1,17V18.1H8.9V17C8.9,16.36 12,14.9 15,14.9Z"
		style="fill:#FFFFFF;
                 stroke:none
                 stroke-width:0;
                 stroke-linecap:flat;
                 stroke-linejoin:miter;"
		transform="matrix(0.7272727272727273,0,0,0.7272727272727273,-0.7272727272727273,-0.7272727272727273)" />
</svg>